<svg xmlns="http://www.w3.org/2000/svg" width="820" height="212" viewBox="0 0 820 212">
  <defs>
    <linearGradient id="bg" x1="0" y1="0" x2="1" y2="1">
      <stop offset="0" stop-color="#f7f2df"/>
      <stop offset="0.52" stop-color="#d7c18d"/>
      <stop offset="1" stop-color="#8a6b32"/>
    </linearGradient>
    <linearGradient id="shine" x1="0" y1="0" x2="0" y2="1">
      <stop offset="0" stop-color="#ffffff" stop-opacity="0.72"/>
      <stop offset="0.46" stop-color="#ffffff" stop-opacity="0.16"/>
      <stop offset="1" stop-color="#ffffff" stop-opacity="0"/>
    </linearGradient>
    <filter id="shadow" x="-20%" y="-20%" width="140%" height="140%">
      <feDropShadow dx="0" dy="5" stdDeviation="4" flood-color="#1b1205" flood-opacity="0.28"/>
    </filter>
  </defs>
  <rect width="820" height="212" rx="18" fill="url(#bg)"/>
  <rect x="8" y="8" width="804" height="196" rx="14" fill="none" stroke="#ffffff" stroke-opacity="0.48" stroke-width="4"/>
  <path d="M0 0H820V88C690 126 553 38 410 75C258 114 137 97 0 145Z" fill="url(#shine)"/>
  <g filter="url(#shadow)">
    <path d="M109 68h116c13 0 24 11 24 24v13h20c22 0 39 17 39 38s-17 38-39 38h-20c-3 16-17 28-34 28H119c-18 0-33-15-33-33V92c0-13 10-24 23-24Z" fill="#2b1f13" opacity="0.2"/>
    <path d="M96 49h116c13 0 24 11 24 24v13h20c22 0 39 17 39 38s-17 38-39 38h-20c-3 16-17 28-34 28H106c-18 0-33-15-33-33V73c0-13 10-24 23-24Z" fill="#fff8df"/>
    <path d="M236 112h18c7 0 13 5 13 12s-6 12-13 12h-18Z" fill="#d29a43"/>
    <rect x="98" y="84" width="111" height="76" rx="20" fill="#f2b84c"/>
    <path d="M121 103c15 18 48 18 64 0" fill="none" stroke="#5b371a" stroke-width="10" stroke-linecap="round"/>
    <circle cx="130" cy="124" r="7" fill="#5b371a"/>
    <circle cx="177" cy="124" r="7" fill="#5b371a"/>
  </g>
  <text x="340" y="70" font-family="Trebuchet MS, Verdana, sans-serif" font-size="28" font-weight="700" fill="#332310" letter-spacing="2">SUPPORT SKALD</text>
  <text x="340" y="123" font-family="Trebuchet MS, Verdana, sans-serif" font-size="52" font-weight="800" fill="#171106">Buy Me a Coffee</text>
  <text x="342" y="161" font-family="Trebuchet MS, Verdana, sans-serif" font-size="24" fill="#4b3518">Help keep the blades spinning</text>
</svg>
